<svg xmlns="http://www.w3.org/2000/svg" viewBox="0 0 4000 600">
  <!-- Sky background -->
  <rect width="4000" height="600" fill="#87CEEB" />
  
  <!-- Sun -->
  <circle cx="2000" cy="100" r="50" fill="#FFD700" />
  <circle cx="2000" cy="100" r="60" fill="#FFD700" opacity="0.3" />
  
  <!-- Ground -->
  <rect y="500" width="4000" height="100" fill="#228B22" />
  <rect y="500" width="4000" height="10" fill="#8B4513" opacity="0.3" /> 
  <!-- Road -->
  <rect y="520" width="4000" height="60" fill="#808080" />
  <rect y="549" width="4000" height="2" fill="#FFFFFF" stroke="#FFFFFF" stroke-dasharray="40 20" />
  
  <!-- Buildings -->
  <!-- Building 1 -->
  <rect x="300" y="350" width="100" height="150" fill="#708090" />
  <rect x="310" y="360" width="30" height="30" fill="#A9A9A9" />
  <rect x="360" y="360" width="30" height="30" fill="#A9A9A9" />
  <rect x="310" y="400" width="30" height="30" fill="#A9A9A9" />
  <rect x="360" y="400" width="30" height="30" fill="#A9A9A9" />
  <rect x="330" y="460" width="30" height="40" fill="#2F4F4F" />
  
  <!-- Building 2 (modified) -->
  <rect x="500" y="250" width="200" height="250" fill="#778899" />
  <rect x="520" y="270" width="60" height="60" fill="#B0C4DE" />
  <rect x="600" y="270" width="60" height="60" fill="#B0C4DE" />
  <rect x="520" y="350" width="60" height="60" fill="#B0C4DE" />
  <rect x="600" y="350" width="60" height="60" fill="#B0C4DE" />
  <rect x="580" y="460" width="40" height="40" fill="#2F4F4F" />
  
  <!-- Building 3 -->
  <rect x="800" y="300" width="150" height="200" fill="#708090" />
  <rect x="820" y="320" width="35" height="35" fill="#A9A9A9" />
  <rect x="895" y="320" width="35" height="35" fill="#A9A9A9" />
  <rect x="820" y="370" width="35" height="35" fill="#A9A9A9" />
  <rect x="895" y="370" width="35" height="35" fill="#A9A9A9" />
  <rect x="860" y="460" width="30" height="40" fill="#2F4F4F" />
  
  <!-- Building 4 (modified) -->
  <rect x="2700" y="300" width="120" height="200" fill="#778899" />
  <path d="M2700 300 L2760 250 L2820 300 Z" fill="#708090" />
  <rect x="2720" y="330" width="30" height="30" fill="#B0C4DE" />
  <rect x="2770" y="330" width="30" height="30" fill="#B0C4DE" />
  <rect x="2720" y="380" width="30" height="30" fill="#B0C4DE" />
  <rect x="2770" y="380" width="30" height="30" fill="#B0C4DE" />
  <rect x="2745" y="460" width="30" height="40" fill="#2F4F4F" />
  
  <!-- Building 5 -->
  <rect x="3500" y="350" width="100" height="150" fill="#708090" />
  <rect x="3510" y="360" width="30" height="30" fill="#A9A9A9" />
  <rect x="3560" y="360" width="30" height="30" fill="#A9A9A9" />
  <rect x="3510" y="400" width="30" height="30" fill="#A9A9A9" />
  <rect x="3560" y="400" width="30" height="30" fill="#A9A9A9" />
  <rect x="3538" y="460" width="30" height="40" fill="#2F4F4F" />
  
  <!-- Building 6 -->
  <rect x="3700" y="250" width="200" height="250" fill="#778899" />
  <rect x="3720" y="270" width="40" height="40" fill="#B0C4DE" />
  <rect x="3780" y="270" width="40" height="40" fill="#B0C4DE" />
  <rect x="3840" y="270" width="40" height="40" fill="#B0C4DE" />
  <rect x="3720" y="330" width="40" height="40" fill="#B0C4DE" />
  <rect x="3780" y="330" width="40" height="40" fill="#B0C4DE" />
  <rect x="3840" y="330" width="40" height="40" fill="#B0C4DE" />
  <rect x="3782" y="460" width="30" height="40" fill="#2F4F4F" />
  
  <!-- Trees (varied shapes and positions) -->
  <!-- Tree 1 -->
  <rect x="1250" y="480" width="20" height="20" fill="#8B4513" />
  <circle cx="1260" cy="460" r="35" fill="#228B22" />
  <circle cx="1250" cy="470" r="25" fill="#32CD32" />
  <circle cx="1270" cy="470" r="25" fill="#32CD32" />
  
  <!-- Tree 2 -->
  <rect x="1450" y="485" width="25" height="15" fill="#8B4513" />
  <ellipse cx="1462" cy="455" rx="40" ry="30" fill="#228B22" />
  <ellipse cx="1452" cy="465" rx="30" ry="20" fill="#32CD32" />
  <ellipse cx="1472" cy="465" rx="30" ry="20" fill="#32CD32" />
  
  <!-- Tree 3 -->
  <rect x="1650" y="475" width="22" height="25" fill="#8B4513" />
  <polygon points="1661,420 1630,475 1692,475" fill="#228B22" />
  <polygon points="1661,435 1640,475 1682,475" fill="#32CD32" />
  
  <!-- Tree 4 -->
  <rect x="1850" y="482" width="18" height="18" fill="#8B4513" />
  <circle cx="1859" cy="462" r="30" fill="#228B22" />
  <circle cx="1849" cy="472" r="20" fill="#32CD32" />
  <circle cx="1869" cy="472" r="20" fill="#32CD32" />
  
  <!-- Tree 5 -->
  <rect x="2050" y="478" width="24" height="22" fill="#8B4513" />
  <ellipse cx="2062" cy="448" rx="35" ry="30" fill="#228B22" />
  <ellipse cx="2052" cy="458" rx="25" ry="20" fill="#32CD32" />
  <ellipse cx="2072" cy="458" rx="25" ry="20" fill="#32CD32" />
  
  <!-- Tree 6 -->
  <rect x="2250" y="484" width="20" height="16" fill="#8B4513" />
  <polygon points="2260,424 2230,484 2290,484" fill="#228B22" />
  <polygon points="2260,444 2240,484 2280,484" fill="#32CD32" />
  
  <!-- Tree 7 -->
  <rect x="2850" y="480" width="22" height="20" fill="#8B4513" />
  <circle cx="2861" cy="460" r="32" fill="#228B22" />
  <circle cx="2851" cy="470" r="22" fill="#32CD32" />
  <circle cx="2871" cy="470" r="22" fill="#32CD32" />
  
  <!-- Tree 8 -->
  <rect x="3050" y="485" width="26" height="15" fill="#8B4513" />
  <ellipse cx="3063" cy="455" rx="38" ry="30" fill="#228B22" />
  <ellipse cx="3053" cy="465" rx="28" ry="20" fill="#32CD32" />
  <ellipse cx="3073" cy="465" rx="28" ry="20" fill="#32CD32" />
  
  <!-- Tree 9 -->
  <rect x="3250" y="479" width="21" height="21" fill="#8B4513" />
  <polygon points="3260,419 3230,479 3290,479" fill="#228B22" />
  <polygon points="3260,439 3240,479 3280,479" fill="#32CD32" />
</svg>